<?xml version="1.0" encoding="utf-8"?>
<!-- Generator: Adobe Illustrator 24.0.0, SVG Export Plug-In . SVG Version: 6.00 Build 0)  -->
<svg version="1.1" id="Capa_1" xmlns="http://www.w3.org/2000/svg" xmlns:xlink="http://www.w3.org/1999/xlink" x="0px" y="0px"
	 viewBox="0 0 512 512" style="enable-background:new 0 0 512 512;" xml:space="preserve">
<style type="text/css">
	.st0{fill:#FAFFDF;}
</style>
<g>
	<g>
		<path class="st0" d="M452,36H60C26.9,36,0,62.9,0,96v240c0,33.1,26.9,60,60,60h176v40H132v40h248v-40H276v-40h176
			c33.1,0,60-26.9,60-60V96C512,62.9,485.1,36,452,36z M472,336c0,11-9,20-20,20H60c-11,0-20-9-20-20V96c0-11,9-20,20-20h392
			c11,0,20,9,20,20V336z"/>
	</g>
</g>
</svg>
